<svg xmlns="http://www.w3.org/2000/svg" xmlns:xlink="http://www.w3.org/1999/xlink" width="140" zoomAndPan="magnify" viewBox="0 0 104.88 37.5" height="50" preserveAspectRatio="xMidYMid meet" version="1.0"><defs><clipPath id="c319959be2"><path d="M 3.148438 0.632812 L 101.585938 0.632812 L 101.585938 36.160156 L 3.148438 36.160156 Z M 3.148438 0.632812 " clip-rule="nonzero"/></clipPath></defs><g clip-path="url(#c319959be2)"><path fill="#ff914d" d="M 53.714844 34.8125 C 52.28125 33.300781 50.882812 32.253906 49.503906 31.636719 C 60.414062 22.507812 65.492188 10.945312 64.558594 6.679688 C 63.035156 16.652344 53.425781 28.128906 49.496094 31.632812 C 48.300781 31.097656 47.125 30.886719 45.953125 30.976562 C 49.246094 26.414062 52.382812 8.214844 50.480469 3.859375 C 52.003906 4.617188 53.59375 5.863281 56.273438 5.433594 C 52.953125 4.457031 51.703125 3.453125 48.898438 1.667969 C 51.726562 11.40625 47.914062 25.863281 45.761719 30.996094 C 44.921875 31.082031 44.082031 31.324219 43.242188 31.714844 C 43.324219 24.972656 35.640625 6.234375 30.839844 3.222656 C 33.679688 3.257812 35.761719 2.675781 38.328125 1.886719 C 40.089844 4.929688 41.285156 8.554688 42.226562 12.144531 C 41.882812 8.222656 40.378906 4.308594 38.945312 0.65625 C 35.148438 1.769531 31.761719 2.078125 27.96875 2.09375 C 36.527344 9.5625 41.757812 25.335938 42.992188 31.835938 C 42.445312 32.109375 41.902344 32.445312 41.355469 32.835938 C 38.738281 27.226562 22.179688 14.238281 16.34375 14.074219 C 18.804688 12.664062 19.894531 11.308594 21.703125 9.328125 C 24.765625 11.054688 29.382812 15.210938 32.015625 17.828125 C 29.726562 14.621094 24.699219 10.167969 21.609375 7.75 C 18.90625 10.636719 16.144531 12.621094 12.882812 14.5625 C 24.332031 16.699219 37.195312 28.132812 41.242188 32.917969 C 40.921875 33.15625 40.601562 33.410156 40.277344 33.6875 C 29.488281 30.398438 18.480469 29.550781 5.503906 34.199219 C 6.90625 32.113281 7.417969 30.234375 7.453125 28.148438 C 13.539062 26.898438 20.617188 25.90625 28.890625 26.300781 C 22.75 25.019531 14.175781 24.8125 6.53125 26.8125 C 5.890625 30.644531 4.609375 33.617188 3.144531 36.351562 C 17.394531 31.367188 29.550781 31.324219 40.789062 35.636719 C 45.441406 32.011719 49.816406 31.976562 53.097656 35.738281 C 66.296875 34.894531 88.519531 34.347656 101.71875 35.429688 C 90.226562 34.046875 67.941406 34.011719 53.714844 34.8125 Z M 53.714844 34.8125 " fill-opacity="1" fill-rule="evenodd"/></g></svg>